<?xml version="1.0" encoding="iso-8859-1"?>
<!-- Uploaded to: SVG Repo, www.svgrepo.com, Generator: SVG Repo Mixer Tools -->
<svg height="800px" width="800px" version="1.1" id="Capa_1" xmlns="http://www.w3.org/2000/svg" xmlns:xlink="http://www.w3.org/1999/xlink" 
	 viewBox="0 0 52.657 52.657" xml:space="preserve">
<path style="fill:#0096E6;" d="M25.081,30.759L25.081,30.759c-5.663,5.663-14.844,5.663-20.506,0l0,0
	c-5.663-5.663-5.663-14.843,0-20.506L14.828,0l10.253,10.253C30.744,15.916,30.744,25.097,25.081,30.759z"/>
<path style="fill:#D0E8F9;" d="M49.985,35.657L49.985,35.657c-3.124,3.124-8.19,3.124-11.314,0l0,0
	c-3.124-3.124-3.124-8.19,0-11.314l5.657-5.657l5.657,5.657C53.109,27.467,53.109,32.533,49.985,35.657z"/>
<path style="fill:#E4ECF4;" d="M31.157,51.485L31.157,51.485c-1.562,1.562-4.095,1.562-5.657,0l0,0
	c-1.562-1.562-1.562-4.095,0-5.657L28.328,43l2.828,2.828C32.719,47.391,32.719,49.923,31.157,51.485z"/>
<circle style="fill:#D0E8F9;" cx="9.328" cy="27.006" r="6"/>
</svg>