<?xml version="1.0" encoding="iso-8859-1"?>
<!-- Uploaded to: SVG Repo, www.svgrepo.com, Generator: SVG Repo Mixer Tools -->
<svg version="1.1" id="Layer_1" xmlns="http://www.w3.org/2000/svg" xmlns:xlink="http://www.w3.org/1999/xlink" 
	 viewBox="0 0 511.993 511.993" xml:space="preserve">
<circle style="fill:#00DFC1;" cx="255.996" cy="255.996" r="255.996"/>
<path style="fill:#00B5A3;" d="M510.884,279.853L287.728,56.697c-7.607-9.089-19.021-14.899-31.729-14.899
	c-22.761,0-41.383,18.622-41.383,41.383V321.96c-23.085,14.007-38.508,39.376-38.508,68.35c0,23.396,10.058,44.44,26.084,59.052
	l62.477,62.477C394.059,507.53,499.113,407.217,510.884,279.853z"/>
<path style="fill:#FFFFFF;" d="M297.382,321.96V83.181c0-22.761-18.622-41.383-41.383-41.383l0,0
	c-22.761,0-41.383,18.622-41.383,41.383V321.96c-23.085,14.007-38.509,39.376-38.509,68.35c0,44.122,35.768,79.891,79.891,79.891
	s79.891-35.768,79.891-79.891C335.891,361.336,320.467,335.965,297.382,321.96z"/>
<path style="fill:#D8D8DA;" d="M297.382,321.96V83.181c0-22.761-18.622-41.383-41.383-41.383c-0.001,0-0.002,0-0.003,0V470.2
	c0.001,0,0.002,0,0.003,0c44.122,0,79.891-35.768,79.891-79.891C335.891,361.336,320.467,335.966,297.382,321.96z"/>
<path style="fill:#FF3C62;" d="M176.109,390.31c0,44.122,35.768,79.891,79.891,79.891s79.891-35.768,79.891-79.891
	c0-28.974-15.425-54.344-38.509-68.35V166.423h-82.765V321.96C191.533,335.965,176.109,361.336,176.109,390.31z"/>
<path style="fill:#FF0335;" d="M297.382,321.96V166.423h-41.386v303.779c0.001,0,0.002,0,0.003,0
	c44.122,0,79.891-35.768,79.891-79.891C335.891,361.336,320.467,335.966,297.382,321.96z"/>
<g>
	<rect x="273.989" y="116.107" style="fill:#29292B;" width="23.393" height="11.043"/>
	<rect x="273.989" y="205.685" style="fill:#29292B;" width="23.393" height="11.043"/>
	<rect x="255.996" y="160.902" style="fill:#29292B;" width="41.383" height="11.043"/>
	<rect x="255.996" y="250.479" style="fill:#29292B;" width="41.383" height="11.043"/>
</g>
</svg>