<?xml version="1.0" encoding="iso-8859-1"?>
<!-- Uploaded to: SVG Repo, www.svgrepo.com, Generator: SVG Repo Mixer Tools -->
<!DOCTYPE svg PUBLIC "-//W3C//DTD SVG 1.1//EN" "http://www.w3.org/Graphics/SVG/1.1/DTD/svg11.dtd">
<svg fill="#000000" height="800px" width="800px" version="1.1" id="Capa_1" xmlns="http://www.w3.org/2000/svg" xmlns:xlink="http://www.w3.org/1999/xlink" 
	 viewBox="0 0 414.701 414.701" xml:space="preserve">
<path id="XMLID_461_" d="M16.436,134.245C37.308,78.857,81.044,35.123,136.43,14.256c4.649-1.753,9.843,0.598,11.595,5.249
	c1.752,4.651-0.598,9.843-5.249,11.595C92.235,50.141,52.326,90.05,33.28,140.593c-1.359,3.605-4.785,5.828-8.423,5.828
	c-1.055,0-2.127-0.187-3.172-0.58C17.033,144.088,14.683,138.896,16.436,134.245z M142.775,382.349
	C92.235,363.308,52.326,323.4,33.28,272.857c-1.752-4.651-6.941-6.999-11.596-5.248c-4.651,1.753-7.001,6.944-5.248,11.596
	c20.872,55.389,64.608,99.122,119.994,119.988c1.045,0.394,2.117,0.581,3.171,0.581c3.639,0,7.065-2.224,8.424-5.83
	C149.777,389.293,147.427,384.101,142.775,382.349z M275.041,31.099c50.541,19.042,90.451,58.95,109.497,109.493
	c1.359,3.606,4.785,5.828,8.423,5.828c1.054,0,2.127-0.187,3.172-0.58c4.651-1.753,7.001-6.944,5.248-11.596
	C380.51,78.857,336.773,35.123,281.388,14.256c-4.652-1.752-9.844,0.597-11.595,5.249C268.04,24.156,270.389,29.347,275.041,31.099z
	 M396.134,267.609c-4.652-1.751-9.843,0.598-11.596,5.248c-19.046,50.543-58.956,90.451-109.497,109.492
	c-4.651,1.752-7.001,6.943-5.249,11.595c1.358,3.606,4.784,5.829,8.423,5.829c1.054,0,2.126-0.187,3.171-0.58
	c55.386-20.866,99.123-64.6,119.995-119.988C403.135,274.553,400.785,269.362,396.134,267.609z M408.242,215.456l-98.581,49.533
	l16.756,50.591c1.07,3.23,0.227,6.788-2.179,9.193c-2.406,2.407-5.964,3.249-9.193,2.181l-50.664-16.777l-16.439,32.879
	l-33.036,65.753c-0.09,0.184-0.186,0.364-0.287,0.541c-1.597,2.786-4.571,4.522-7.808,4.522c-3.241,0-6.219-1.741-7.814-4.535
	c-0.099-0.172-0.191-0.347-0.278-0.525l-33.031-65.739l-16.448-32.896l-50.663,16.777c-3.229,1.068-6.787,0.226-9.193-2.18
	c-2.406-2.406-3.25-5.964-2.18-9.193l16.754-50.592c0,0-99.426-49.983-99.828-50.265c-0.002-0.001-0.003-0.002-0.005-0.004
	c-0.001,0-0.002-0.001-0.003-0.002c-0.887-0.621-1.555-1.461-2.248-2.267c-3.815-4.436-0.754-9.12,0.014-10.228
	c0.595-0.859,1.341-1.617,2.211-2.23c0.411-0.291,66.987-33.769,66.987-33.769l32.894-16.446L87.205,99.116
	c-1.069-3.23-0.226-6.787,2.18-9.193c2.406-2.405,5.964-3.247,9.193-2.18l50.593,16.756L198.683,5.96
	c0.721-1.423,1.849-2.602,2.255-2.951c1.552-1.338,3.567-2.155,5.771-2.18c0.006,0,0.196,0,0.205,0
	c2.204,0.024,4.217,0.841,5.77,2.178c0.406,0.351,1.408,1.312,2.257,2.954l49.509,98.537l50.592-16.755
	c3.229-1.068,6.787-0.226,9.193,2.18c2.406,2.406,3.25,5.964,2.18,9.193l-16.777,50.662l32.879,16.439l65.723,33.022
	C408.544,199.386,422.622,207.037,408.242,215.456z M272.618,120.755l7.055,14.041l13.697,6.849l10.326-31.183L272.618,120.755z
	 M109.924,110.462l10.326,31.184l13.699-6.85l7.055-14.04L109.924,110.462z M141.105,293.909l-6.849-13.697l-14.041-7.055
	l-10.292,31.078L141.105,293.909z M303.698,304.235l-10.293-31.078l-14.041,7.055l-6.849,13.697L303.698,304.235z M366.374,216.348
	h-93.723c-4.971,0-9-4.029-9-9s4.029-9,9-9h93.722l-31.921-16.039l-59.917-29.958l-14.805,14.806
	c-3.515,3.516-9.213,3.515-12.728,0.001c-3.515-3.515-3.515-9.213,0-12.729l14.904-14.904l-46.094-91.737v93.721
	c0,4.971-4.029,9-9,9s-9-4.029-9-9V47.787l-46.095,91.739l14.903,14.903c3.515,3.516,3.514,9.214,0,12.729
	s-9.212,3.515-12.728-0.001l-14.805-14.805l-59.933,29.965l-31.906,16.031h93.722c4.971,0,9,4.029,9,9s-4.029,9-9,9H47.246
	l91.74,46.096l14.903-14.904c3.515-3.514,9.213-3.514,12.728,0c3.515,3.515,3.515,9.213,0,12.729l-14.805,14.806l29.967,59.932
	l16.032,31.908V273.19c0-4.971,4.029-9,9-9s9,4.029,9,9v93.722l16.039-31.922l29.958-59.916l-14.806-14.806
	c-3.515-3.515-3.515-9.213,0-12.729c3.515-3.514,9.213-3.514,12.728,0l14.905,14.904L366.374,216.348z M241.448,207.349
	c0,19.1-15.538,34.638-34.637,34.638c-19.1,0-34.638-15.538-34.638-34.638c0-19.099,15.539-34.637,34.638-34.637
	C225.91,172.713,241.448,188.251,241.448,207.349z M223.448,207.349c0-9.174-7.463-16.637-16.637-16.637
	c-9.174,0-16.638,7.463-16.638,16.637s7.464,16.638,16.638,16.638C215.985,223.987,223.448,216.523,223.448,207.349z"/>
</svg>