<svg xmlns="http://www.w3.org/2000/svg" xmlns:xlink="http://www.w3.org/1999/xlink" viewBox="0 0 500 500"><defs><clipPath id="freepik--clip-path--inject-223"><path d="M314.38,390.83s-13-4.79-15.55,4.8c0,0,2.32,10.55.93,16.31s-8.39,16.79-8.82,18.89c-.84,4.09-.21,4.37-.21,4.37s5.1,2.94,11.93-.21,18.68-16.7,20.53-19.49-5.8-13.83-5.8-13.83Z" style="fill:#fff;stroke:#263238;stroke-linecap:round;stroke-linejoin:round"></path></clipPath><clipPath id="freepik--clip-path-2--inject-223"><path d="M353.6,403.79s-5.54-4-17-3.16c0,0-.83,13.75-2.39,17.75s-9.79,10.93-11.31,12.11-1.53,5.35-1.53,5.35h34.81a109.61,109.61,0,0,0-2.77-17.66Z" style="fill:#fff;stroke:#263238;stroke-linecap:round;stroke-linejoin:round"></path></clipPath><clipPath id="freepik--clip-path-3--inject-223"><path d="M382.77,162.92a41.7,41.7,0,0,0-12.26-5.55s-2.36-2.31-3.6-.5c-5,7.22-31.57-3.12-31.57-3.12s-1.47-1.65-5.24-1.58A16.12,16.12,0,0,0,321,148.5c-5.54-.4-24.79,3.18-27.16,1.67s-7.12-39.48-7.12-39.48H275.26v4.91s-5.14,12.1-4.74,29.5-15.4,24.14,32.07,40c0,0-1.58,28.48,3.56,41.14,0,0,38.12,19.14,62.38,19.26,0,0,5.4,3.55-1.68-12.67L375,221.62s11.47,20,19.38,14.48S396,171.28,382.77,162.92Z" style="fill:#2980B9;stroke:#263238;stroke-linecap:round;stroke-linejoin:round"></path></clipPath><clipPath id="freepik--clip-path-4--inject-223"><path d="M212.29,253.63h-40l1-.41a12.89,12.89,0,0,0,8-11.86V226.62h22v14.65a12.91,12.91,0,0,0,8,11.95Z" style="fill:#fff;stroke:#263238;stroke-linecap:round;stroke-linejoin:round"></path></clipPath><clipPath id="freepik--clip-path-5--inject-223"><rect x="148.34" y="168.74" width="87.86" height="60.4" style="fill:#bfbfbf;stroke:#263238;stroke-linecap:round;stroke-linejoin:round"></rect></clipPath><clipPath id="freepik--clip-path-6--inject-223"><rect x="366.33" y="399.77" width="62.72" height="38.46" style="fill:#bfbfbf;stroke:#263238;stroke-linecap:round;stroke-linejoin:round"></rect></clipPath><clipPath id="freepik--clip-path-7--inject-223"><rect x="376.33" y="370.79" width="62.72" height="30.3" style="fill:#999;stroke:#263238;stroke-linecap:round;stroke-linejoin:round"></rect></clipPath><clipPath id="freepik--clip-path-8--inject-223"><path d="M134.31,389.12c-2.1,15.86-4.47,35.63-4.47,49.28H117.51V352a3.15,3.15,0,0,1,3.15-3.15h15S136.42,373.26,134.31,389.12Z" style="fill:#bfbfbf;stroke:#263238;stroke-linecap:round;stroke-linejoin:round"></path></clipPath><clipPath id="freepik--clip-path-9--inject-223"><rect x="62" y="407.93" width="62.72" height="30.3" transform="translate(186.73 846.17) rotate(180)" style="fill:#757575;stroke:#263238;stroke-linecap:round;stroke-linejoin:round"></rect></clipPath></defs><g id="freepik--Floor--inject-223"><line x1="38.92" y1="438.41" x2="464.46" y2="438.41" style="fill:none;stroke:#263238;stroke-linecap:round;stroke-linejoin:round"></line></g><g id="freepik--Character--inject-223"><path d="M286.51,113.29l-.74-6.33s3-5.51,3-6-1.06-6-2.24-7.53A22.47,22.47,0,0,0,282.94,90c-1.31-1.18-1.84,0-1.44,1.38a21.06,21.06,0,0,0-4.62-1,11.93,11.93,0,0,0-2.51,1,6.81,6.81,0,0,0-1.58-.21,11.41,11.41,0,0,0-2.32,1.21,14.32,14.32,0,0,0-1.7.58c-.88.49-2,2.84-2,2.84s-1.59.68-1.85,1.21-2.64,3.84-2,4.11c1.44.64,4-1.19,4-1.19s3.79.34,4,1.33,3.05,6,4.93,6.81V114Z" style="fill:#fff;stroke:#263238;stroke-linecap:round;stroke-linejoin:round"></path><polygon points="389.66 146.79 384.45 153.51 377.03 147.77 376.64 142.09 382.24 141.05 389.66 146.79" style="fill:#2980B9;stroke:#263238;stroke-linecap:round;stroke-linejoin:round"></polygon><path d="M350.78,101.79s7.27-2.78,13,1.56c7.24,5.5,16.15,21.18,7.54,49.07,0,0-9.29-9.29-35.94,0,0,0-7.09-3.55-8.47-23.93C326.19,117.74,324.67,97.24,350.78,101.79Z" style="fill:#263238"></path><path d="M376.64,142.08s-6.8.54-9.73-10.71" style="fill:none;stroke:#263238;stroke-linecap:round;stroke-linejoin:round"></path><polygon points="415.9 318.34 408.06 321.62 404.44 312.96 406.9 307.82 412.29 309.68 415.9 318.34" style="fill:#2980B9;stroke:#263238;stroke-linecap:round;stroke-linejoin:round"></polygon><path d="M407.16,308.26s-2.73-10.68-11.06-10.88" style="fill:none;stroke:#263238;stroke-linecap:round;stroke-linejoin:round"></path><path d="M334.67,138.23c5.48.54,5.12-12.81.37-13.69C329.71,123.55,326.79,137.47,334.67,138.23Z" style="fill:#2980B9;stroke:#263238;stroke-linecap:round;stroke-linejoin:round"></path><path d="M336.6,121c-7.49-.73-7,17.52-.51,18.72C343.39,141.09,347.37,122.05,336.6,121Z" style="fill:#757575;stroke:#263238;stroke-linecap:round;stroke-linejoin:round"></path><path d="M323.48,414.15l1,2.93a58.55,58.55,0,0,1-5.07,7.15s-1-.33-2.65,1.12a6.13,6.13,0,0,0-1.76,3.76s-7.64,9.16-17.33,9.3-6.77-4.75-6.77-4.75Z" style="fill:#2980B9;stroke:#263238;stroke-linecap:round;stroke-linejoin:round"></path><path d="M314.38,390.83s-13-4.79-15.55,4.8c0,0,2.32,10.55.93,16.31s-8.39,16.79-8.82,18.89c-.84,4.09-.21,4.37-.21,4.37s5.1,2.94,11.93-.21,18.68-16.7,20.53-19.49-5.8-13.83-5.8-13.83Z" style="fill:#fff"></path><g style="clip-path:url(#freepik--clip-path--inject-223)"><path d="M314.38,390.83s-13-4.79-15.55,4.8c0,0,2.32,10.55.93,16.31s-8.39,16.79-8.82,18.89c-.84,4.09-.21,4.37-.21,4.37s5.1,2.94,11.93-.21,18.68-16.7,20.53-19.49-5.8-13.83-5.8-13.83Z" style="opacity:0.7000000000000001"></path></g><path d="M314.38,390.83s-13-4.79-15.55,4.8c0,0,2.32,10.55.93,16.31s-8.39,16.79-8.82,18.89c-.84,4.09-.21,4.37-.21,4.37s5.1,2.94,11.93-.21,18.68-16.7,20.53-19.49-5.8-13.83-5.8-13.83Z" style="fill:none;stroke:#263238;stroke-linecap:round;stroke-linejoin:round"></path><path d="M307.72,404.38a28.26,28.26,0,0,1-3.25,18.81s-3.21,3-1.85,4.77" style="fill:none;stroke:#263238;stroke-linecap:round;stroke-linejoin:round"></path><path d="M306.31,421.88s-6.8.4-10.35-1" style="fill:none;stroke:#263238;stroke-linecap:round;stroke-linejoin:round"></path><path d="M307.57,418.12s-6.36,1-9.91-1" style="fill:none;stroke:#263238;stroke-linecap:round;stroke-linejoin:round"></path><path d="M308.65,414s-5.57.81-9.2-.92" style="fill:none;stroke:#263238;stroke-linecap:round;stroke-linejoin:round"></path><path d="M309.27,409.23s-6.2,1.95-9.13,0" style="fill:none;stroke:#263238;stroke-linecap:round;stroke-linejoin:round"></path><path d="M363.27,225.57s12,34.93,6.69,57.82-7,32.28-6.69,44.72-12.65,77.11-12.65,77.11H338.76s1.76-56,1.67-69.57,2.45-9.86-.66-23-.8-26.37-5.12-40.61c0,0-23.31,40.09-27.53,45.89,0,0,4.69,17.61,4.16,32.58-.61,17.53.93,43.92.93,43.92s-2.64,4.95-9.89,3c0,0-18.94-78.11-17.88-82s8.44-46.14,28.7-74.19c0,0,3.47-11.94,5.85-19.58Z" style="fill:#263238"></path><path d="M353.6,403.79s-5.54-4-17-3.16c0,0-.83,13.75-2.39,17.75s-9.79,10.93-11.31,12.11-1.53,5.35-1.53,5.35h34.81a109.61,109.61,0,0,0-2.77-17.66Z" style="fill:#fff"></path><g style="clip-path:url(#freepik--clip-path-2--inject-223)"><path d="M353.6,403.79s-5.54-4-17-3.16c0,0-.83,13.75-2.39,17.75s-9.79,10.93-11.31,12.11-1.53,5.35-1.53,5.35h34.81a109.61,109.61,0,0,0-2.77-17.66Z" style="opacity:0.7000000000000001"></path></g><path d="M353.6,403.79s-5.54-4-17-3.16c0,0-.83,13.75-2.39,17.75s-9.79,10.93-11.31,12.11-1.53,5.35-1.53,5.35h34.81a109.61,109.61,0,0,0-2.77-17.66Z" style="fill:none;stroke:#263238;stroke-linecap:round;stroke-linejoin:round"></path><path d="M346.42,405.57s-.83,12.66-2.79,16a23.46,23.46,0,0,1-3.86,5s-2.38,0,0,3.2" style="fill:none;stroke:#263238;stroke-linecap:round;stroke-linejoin:round"></path><path d="M342.43,425.35s-7.43-4.26-12.72-1" style="fill:none;stroke:#263238;stroke-linecap:round;stroke-linejoin:round"></path><path d="M344.22,422.46s-5.19-4-11.3-1.83" style="fill:none;stroke:#263238;stroke-linecap:round;stroke-linejoin:round"></path><path d="M346.42,418s-5.58-4.33-11.46-1.57" style="fill:none;stroke:#263238;stroke-linecap:round;stroke-linejoin:round"></path><path d="M347.17,412.53s-6.76-3.63-11.69-.87" style="fill:none;stroke:#263238;stroke-linecap:round;stroke-linejoin:round"></path><path d="M356.17,435.84v2.57h-4a7,7,0,0,0-6.7,0H326.7a13.67,13.67,0,0,1-5.74-1.29l.4-1.28Z" style="fill:#2980B9;stroke:#263238;stroke-linecap:round;stroke-linejoin:round"></path><path d="M382.77,162.92a41.7,41.7,0,0,0-12.26-5.55s-2.36-2.31-3.6-.5c-5,7.22-31.57-3.12-31.57-3.12s-1.47-1.65-5.24-1.58A16.12,16.12,0,0,0,321,148.5c-5.54-.4-24.79,3.18-27.16,1.67s-7.12-39.48-7.12-39.48H275.26v4.91s-5.14,12.1-4.74,29.5-15.4,24.14,32.07,40c0,0-1.58,28.48,3.56,41.14,0,0,38.12,19.14,62.38,19.26,0,0,5.4,3.55-1.68-12.67L375,221.62s11.47,20,19.38,14.48S396,171.28,382.77,162.92Z" style="fill:#2980B9"></path><g style="clip-path:url(#freepik--clip-path-3--inject-223)"><path d="M302.45,188.69c.06-2.27.14-3.63.14-3.63-47.47-15.83-31.68-22.55-32.07-40s4.74-29.5,4.74-29.5v-4.92h11.48s4.74,38,7.12,39.49c5.34,8.21-4.45,17.85-1,19.4s11.82-6,11.82-6A65.75,65.75,0,0,1,302.45,188.69Z" style="fill-opacity:0.7000000000000001;opacity:0.2"></path><path d="M392.26,211.93s-2.26,16.41-3.45,24.61C382,233.83,375,221.61,375,221.61l-8.14,11.17c7.08,16.22,1.68,12.68,1.68,12.68-24.26-.12-62.38-19.26-62.38-19.26a37,37,0,0,1-1.87-6.57c24.86,19.87,57,22.18,59.86,22.35-4.87-.33-21.36-5.39-23.31-9.2s16-.28,20.71-1.07,9.79-16,9.79-16c-3.52,0-7.95-12.66-7.54-14.23s6.47-1.22,6.47-1.22-3.31-3.15-2.39-7.27-.73-10.32,2.54-9.53,2.47,6.29,2.47,6.29Z" style="fill-opacity:0.7000000000000001;opacity:0.2"></path></g><path d="M382.77,162.92a41.7,41.7,0,0,0-12.26-5.55s-2.36-2.31-3.6-.5c-5,7.22-31.57-3.12-31.57-3.12s-1.47-1.65-5.24-1.58A16.12,16.12,0,0,0,321,148.5c-5.54-.4-24.79,3.18-27.16,1.67s-7.12-39.48-7.12-39.48H275.26v4.91s-5.14,12.1-4.74,29.5-15.4,24.14,32.07,40c0,0-1.58,28.48,3.56,41.14,0,0,38.12,19.14,62.38,19.26,0,0,5.4,3.55-1.68-12.67L375,221.62s11.47,20,19.38,14.48S396,171.28,382.77,162.92Z" style="fill:none;stroke:#263238;stroke-linecap:round;stroke-linejoin:round"></path><path d="M344.31,169.53c11.53.92,22.6-12.66,22.6-12.66s-6.25-.26-7-3.12c-2.52-9,3.7-20.92,3.7-20.92s-27.57,3-22.23,8.87a15.81,15.81,0,0,1,2.49,3.57c2,4,1.1,7.18.27,8a1.25,1.25,0,0,1-.19.15c-1.61.9-8.57.32-8.57.32S333.79,168.69,344.31,169.53Z" style="fill:#fff;stroke:#263238;stroke-linecap:round;stroke-linejoin:round"></path><path d="M363.28,160.67a31.18,31.18,0,0,1-12.82,2.53l-3.32,2" style="fill:none;stroke:#263238;stroke-linecap:round;stroke-linejoin:round"></path><path d="M343.67,165.18l-.44-2.26s-5.81-1.31-7.84-4.54" style="fill:none;stroke:#263238;stroke-linecap:round;stroke-linejoin:round"></path><path d="M344.1,153.28c8.64,1.52,11.73-9.66,11.73-9.66s-6.93-1.46-12,1.65C345.84,149.25,344.93,152.45,344.1,153.28Z" style="fill:#263238"></path><path d="M343.8,104.25C325,107,334.06,134.78,336,141.67c.72,2.55,8.65,10,12.2,9.34,2.77-.53,12.63-8.86,13.14-12.3C362.69,129.53,365,101.13,343.8,104.25Z" style="fill:#fff;stroke:#263238;stroke-linecap:round;stroke-linejoin:round"></path><path d="M341.22,124.49c0,1.3,1.08,5-1.47,7.61-1.65,1.68,2.55,2.43,2.55,2.43" style="fill:none;stroke:#263238;stroke-linecap:round;stroke-linejoin:round"></path><path d="M340.37,118.67A8.19,8.19,0,0,0,334,121.9" style="fill:none;stroke:#263238;stroke-linecap:round;stroke-linejoin:round"></path><path d="M346.86,118.39a17.65,17.65,0,0,1,7.2.54" style="fill:none;stroke:#263238;stroke-linecap:round;stroke-linejoin:round"></path><path d="M336.8,127.56c.15.76.71,1.3,1.27,1.19s.88-.81.74-1.58-.72-1.3-1.27-1.19S336.65,126.79,336.8,127.56Z" style="fill:#263238"></path><path d="M349,126.08c.14.77.71,1.31,1.27,1.2a1.26,1.26,0,0,0,.73-1.58c-.14-.77-.71-1.3-1.27-1.2A1.27,1.27,0,0,0,349,126.08Z" style="fill:#263238"></path><path d="M342.3,139.63a22,22,0,0,0,8.43-3.87s.75,4.81-3.23,6.15c-3.05,1-4.54-2.43-4.54-2.43" style="fill:none;stroke:#263238;stroke-linecap:round;stroke-linejoin:round"></path><path d="M350.78,108.11s0,13.79,12.5,17.78l4.59-13.62L345.32,100.8c-23.94.11-29.18,29.59-16.42,46.48C328.9,147.28,326,109.5,350.78,108.11Z" style="fill:#263238"></path><path d="M360.68,126.69c-.29-1.53,3.28-5.76,4.8-3.36,2.6,4.11,1.27,8-.94,9.63-1,.74-2.2,2.08-3.22,1" style="fill:#fff;stroke:#263238;stroke-linecap:round;stroke-linejoin:round"></path><path d="M363.79,118.24c-7.5-.73-7,17.52-.51,18.72C370.57,138.32,374.55,119.28,363.79,118.24Z" style="fill:#757575;stroke:#263238;stroke-linecap:round;stroke-linejoin:round"></path><path d="M364.35,122.71s-1-21.17-24-20.9c0,0,3.47-2.7,10.09-1s17.41,6.73,17.41,21.91Z" style="fill:#2980B9;stroke:#263238;stroke-linecap:round;stroke-linejoin:round"></path><path d="M365.56,120.76c-5.47-.53-5.11,12.81-.37,13.7C370.53,135.45,373.44,121.52,365.56,120.76Z" style="fill:#2980B9;stroke:#263238;stroke-linecap:round;stroke-linejoin:round"></path><g style="opacity:0.2"><path d="M335.62,239.78s-4.17,14.61-1.21,26.08" style="fill:none;stroke:#fff;stroke-linecap:round;stroke-linejoin:round"></path><path d="M333.08,269s-8.14-5.74-11.7-6.33" style="fill:none;stroke:#fff;stroke-linecap:round;stroke-linejoin:round"></path><path d="M338.59,271.6s-15.43-2.18-19.58,0" style="fill:none;stroke:#fff;stroke-linecap:round;stroke-linejoin:round"></path><path d="M335.62,269s7.4-3.36,11.52-4.15" style="fill:none;stroke:#fff;stroke-linecap:round;stroke-linejoin:round"></path><path d="M331.67,239.17s-3.9,8.72,1.41,11.57" style="fill:none;stroke:#fff;stroke-linecap:round;stroke-linejoin:round"></path><path d="M300.14,314.72c-.21.79,5.08,3.17,5.08,3.17s-2.12,5.53-5.08,6.33" style="fill:none;stroke:#fff;stroke-linecap:round;stroke-linejoin:round"></path><path d="M357.63,324.22c-2.16,5.8-8,10-8,10" style="fill:none;stroke:#fff;stroke-linecap:round;stroke-linejoin:round"></path><path d="M296.66,362.72s7.36,7.91,8.56,10.81" style="fill:none;stroke:#fff;stroke-linecap:round;stroke-linejoin:round"></path></g><path d="M391.13,259.14l4.48,37.39a2.4,2.4,0,0,1-1.29,2.43L358,317.72a2,2,0,0,1-2.87-1.51l-5-38.2a2.42,2.42,0,0,1,1.34-2.48l36.82-17.94A2,2,0,0,1,391.13,259.14Z" style="fill:#bfbfbf;stroke:#263238;stroke-linecap:round;stroke-linejoin:round"></path><path d="M393.13,260.33l4.48,37.38a2.42,2.42,0,0,1-1.29,2.44L360,318.9a2,2,0,0,1-2.87-1.5l-5-38.21a2.41,2.41,0,0,1,1.33-2.48l36.82-17.93A2,2,0,0,1,393.13,260.33Z" style="fill:#bfbfbf;stroke:#263238;stroke-linecap:round;stroke-linejoin:round"></path><path d="M374.36,285.15a7,7,0,0,0-.1-1.13,2.36,2.36,0,0,1,1.65-.75c1.68,0,3,2.08,3,4.65s-1.35,4.65-3,4.65c-1.42,0-2.6-1.5-2.93-3.52A5.58,5.58,0,0,0,374.36,285.15Z" style="fill:#2980B9;stroke:#263238;stroke-linecap:round;stroke-linejoin:round"></path><path d="M380.79,249.05l3.69,43.52s-2.11,5.8-3.69,7.65-4.44,11.36-5.91,13.2.79,2.36,4.8-3.18a29.5,29.5,0,0,1,3.48,4.48c.79,1.58,2.9-2.37,4.75-2.9s5.54-1.85,5.54-3.69,2.4-3.1,2.64-5.54-2.38-11.6-2.38-11.6l1.06-40.25Z" style="fill:#fff;stroke:#263238;stroke-linecap:round;stroke-linejoin:round"></path><path d="M397.61,211.84c1.36,13,.24,28.77.24,28.77l-2.31,20.21s1.15,3.94.28,5c-2.9,3.7-9.23-.72-14.24-4.41s-2-6.07-2-6.07-.9-7.65-2.64-12.39-3.91-32.63-4.06-37.46c0,0-.72-7.91-2.47-10s12.23-17.93,16.45-18.46" style="fill:#2980B9;stroke:#263238;stroke-linecap:round;stroke-linejoin:round"></path><path d="M303.78,156.74S307,172,302.59,185.06" style="fill:none;stroke:#263238;stroke-linecap:round;stroke-linejoin:round"></path><path d="M366.85,232.79a30.81,30.81,0,0,1-19.71,2" style="fill:none;stroke:#263238;stroke-linecap:round;stroke-linejoin:round"></path><path d="M330.1,152.17s.75,20.15,14.91,21.33" style="fill:none;stroke:#263238;stroke-linecap:round;stroke-linejoin:round"></path><path d="M293.86,150.17s1.22,6.16-2.74,8.21,0-4.1,0-4.1" style="fill:none;stroke:#263238;stroke-linecap:round;stroke-linejoin:round"></path><path d="M379.58,255.38s6.82,4.94,11.55,3.76" style="fill:none;stroke:#263238;stroke-linecap:round;stroke-linejoin:round"></path><path d="M275.26,115.6s7.16,3.13,9.13,2.62" style="fill:none;stroke:#263238;stroke-linecap:round;stroke-linejoin:round"></path><path d="M324.16,200h0l2-5.07,1.62.38-1.75,7.41-1.1-.26,1.25-5.31h0l-2,5.13-1.1-.26.39-5.44h0l-1.24,5.23-1-.24,1.74-7.4,1.62.38Z" style="fill:#263238"></path><path d="M328.15,197.23a1.82,1.82,0,1,1,3.53.83l-.91,3.85a1.82,1.82,0,1,1-3.53-.83Zm.24,4.19c-.13.53.06.79.43.88s.65-.06.77-.59l1-4c.12-.53-.07-.78-.44-.87s-.64.06-.77.59Z" style="fill:#263238"></path><path d="M333.43,198.75h0l-1.26,5.37-1.05-.25,1.75-7.4,1.46.34.13,4.71h0l1-4.43,1,.25-1.75,7.4-1.19-.28Z" style="fill:#263238"></path><path d="M337.36,197.53l1.84.43a1.63,1.63,0,0,1,1.31,2.24l-.89,3.74a1.63,1.63,0,0,1-2.16,1.42l-1.84-.43Zm.92,1.33L337,204.14l.66.16c.37.09.63-.05.76-.58l.91-3.85c.12-.53-.06-.77-.43-.86Z" style="fill:#263238"></path><path d="M343.69,206.83l-1.18-.28.12-1.39-1.43-.34-.52,1.3-1.07-.25,2.93-7.12,1.71.4Zm-2.11-3,1.13.26.33-3.87h0Z" style="fill:#263238"></path><path d="M345.38,204.64l-.31-5.3,1.22.29.08,3.58h0l1.67-3.16,1.11.26-2.63,4.6-.58,2.46-1.16-.28Z" style="fill:#263238"></path><path d="M330.7,184.2l1.17.27-1.75,7.4L329,191.6Z" style="fill:#263238"></path><path d="M342.41,186.65a2.83,2.83,0,0,0-3.47.5,2.79,2.79,0,0,0-2.93-1.9c-2,.16-3.13,2.37-2.05,4.86a11.43,11.43,0,0,0,3.17,3.91l.26.21.32-.08a11.46,11.46,0,0,0,4.52-2.22C344.25,190.12,344.13,187.63,342.41,186.65Z" style="fill:#263238"></path><path d="M281.5,91.33c.92,1.79,2,4.29,1.58,5.08s-3.43,4.9-2.38,7.4" style="fill:none;stroke:#263238;stroke-linecap:round;stroke-linejoin:round"></path><path d="M266.73,95.75l-1.06,3a2,2,0,0,0,2.64-.53c1.18-1.45,3.56-.84,3.56-.84" style="fill:none;stroke:#263238;stroke-linecap:round;stroke-linejoin:round"></path><path d="M274.37,91.33s-4.64,3,.89,2.31c3.31-.38,4.62.63,4.57.84" style="fill:none;stroke:#263238;stroke-linecap:round;stroke-linejoin:round"></path><path d="M270.47,92.33s-2,1.6-.84,2.54,3.58.56,4.05.51a6.54,6.54,0,0,1,3,.74" style="fill:none;stroke:#263238;stroke-linecap:round;stroke-linejoin:round"></path></g><g id="freepik--Device--inject-223"><rect x="102.04" y="86.41" width="180.47" height="352" rx="9.26" style="fill:#fff;stroke:#263238;stroke-linecap:round;stroke-linejoin:round"></rect><path d="M178.32,95.2a2.52,2.52,0,1,1-2.52-2.51A2.52,2.52,0,0,1,178.32,95.2Z" style="fill:#2980B9;stroke:#263238;stroke-linecap:round;stroke-linejoin:round"></path><path d="M211.26,95.2a1.58,1.58,0,1,1-1.58-1.57A1.58,1.58,0,0,1,211.26,95.2Z" style="fill:#2980B9;stroke:#263238;stroke-linecap:round;stroke-linejoin:round"></path><rect x="182.52" y="94.31" width="20.66" height="1.78" rx="0.74" style="fill:#2980B9;stroke:#263238;stroke-linecap:round;stroke-linejoin:round"></rect><path d="M277.29,98.3V427.36a6.09,6.09,0,0,1-6.09,6.09H113.35a6.09,6.09,0,0,1-6.09-6.09V98.3a6.08,6.08,0,0,1,6.09-6.08h32.4a5.11,5.11,0,0,1,4.79,3.32l1.38,3.7a5.1,5.1,0,0,0,4.78,3.33h71.14a5.11,5.11,0,0,0,4.79-3.33l1.38-3.7a5.09,5.09,0,0,1,4.78-3.32H271.2A6.09,6.09,0,0,1,277.29,98.3Z" style="fill:#2980B9;opacity:0.4"></path><path d="M277.29,408.19v19.17a6.08,6.08,0,0,1-6.09,6.09H113.35a6.09,6.09,0,0,1-6.09-6.09V408.19Z" style="fill:#2980B9"></path><path d="M277.29,98.31v15.12h-170V98.31a6.09,6.09,0,0,1,6.09-6.09h32.4a5.1,5.1,0,0,1,4.79,3.32l1.37,3.7a5.12,5.12,0,0,0,4.79,3.33h71.14a5.12,5.12,0,0,0,4.79-3.33l1.37-3.7a5.11,5.11,0,0,1,4.79-3.32H271.2A6.08,6.08,0,0,1,277.29,98.31Z" style="fill:#2980B9"></path><path d="M277.29,98.26V427.32a6.09,6.09,0,0,1-6.09,6.08H113.35a6.08,6.08,0,0,1-6.09-6.08V98.26a6.09,6.09,0,0,1,6.09-6.09h32.4a5.11,5.11,0,0,1,4.79,3.33l1.38,3.69a5.1,5.1,0,0,0,4.78,3.33h71.14a5.11,5.11,0,0,0,4.79-3.33L234,95.5a5.1,5.1,0,0,1,4.78-3.33H271.2A6.09,6.09,0,0,1,277.29,98.26Z" style="fill:none;stroke:#263238;stroke-linecap:round;stroke-linejoin:round"></path><rect x="144.42" y="301.27" width="95.7" height="28.97" rx="12.07" style="fill:#263238"></rect><path d="M168.56,312.26v1.79c0,2.21-1.07,3.41-3.23,3.41h-1v5.18h-2.17V308.85h3.2C167.49,308.85,168.56,310.05,168.56,312.26Zm-4.26-1.44v4.67h1c.69,0,1.06-.32,1.06-1.3v-2.07c0-1-.37-1.3-1.06-1.3Z" style="fill:#fff"></path><path d="M171.63,308.85v10.64c0,1,.43,1.34,1.12,1.34s1.13-.36,1.13-1.34V308.85h2.05v10.5c0,2.21-1.11,3.47-3.24,3.47s-3.23-1.26-3.23-3.47v-10.5Z" style="fill:#fff"></path><path d="M181.94,322.64a4.21,4.21,0,0,1-.2-1.7v-2.16c0-1.28-.43-1.76-1.42-1.76h-.75v5.62h-2.16V308.85h3.27c2.24,0,3.21,1,3.21,3.17v1.08a2.73,2.73,0,0,1-1.42,2.78v0c1.08.45,1.44,1.48,1.44,2.92V321a4.2,4.2,0,0,0,.23,1.68Zm-2.37-11.82v4.23h.85c.81,0,1.3-.35,1.3-1.45v-1.36c0-1-.34-1.42-1.1-1.42Z" style="fill:#fff"></path><path d="M191.61,317.5v1.83c0,2.2-1.1,3.47-3.23,3.47s-3.23-1.27-3.23-3.47v-7.17c0-2.21,1.1-3.47,3.23-3.47s3.23,1.26,3.23,3.47v1.34h-2.05V312c0-1-.43-1.36-1.12-1.36s-1.13.38-1.13,1.36v7.45c0,1,.44,1.34,1.13,1.34s1.12-.36,1.12-1.34v-2Z" style="fill:#fff"></path><path d="M195.1,322.64h-2.17V308.85h2.17v5.91h2.46v-5.91h2.21v13.79h-2.21v-5.91H195.1Z" style="fill:#fff"></path><path d="M208.36,322.64h-2.19l-.37-2.5h-2.66l-.38,2.5h-2L203,308.85h3.17Zm-5-4.37h2.09l-1-7h0Z" style="fill:#fff"></path><path d="M212.28,308.69c2.11,0,3.19,1.26,3.19,3.47v.43h-2.05V312c0-1-.39-1.36-1.08-1.36s-1.09.38-1.09,1.36.44,1.75,1.86,3c1.81,1.6,2.38,2.74,2.38,4.32,0,2.2-1.1,3.47-3.23,3.47s-3.23-1.27-3.23-3.47v-.85h2.05v1c0,1,.43,1.34,1.12,1.34s1.12-.36,1.12-1.34-.43-1.76-1.85-3c-1.81-1.59-2.38-2.74-2.38-4.31C209.09,310,210.17,308.69,212.28,308.69Z" style="fill:#fff"></path><path d="M218.9,314.66h3v2h-3v4h3.74v2h-5.91V308.85h5.91v2H218.9Z" style="fill:#fff"></path><path d="M212.29,253.63h-40l1-.41a12.89,12.89,0,0,0,8-11.86V226.62h22v14.65a12.91,12.91,0,0,0,8,11.95Z" style="fill:#fff"></path><g style="clip-path:url(#freepik--clip-path-4--inject-223)"><path d="M203.26,226.62v12.81a105.59,105.59,0,0,1-22,1.93V226.62Z" style="fill-opacity:0.7000000000000001;opacity:0.30000000000000004"></path></g><path d="M212.29,253.63h-40l1-.41a12.89,12.89,0,0,0,8-11.86V226.62h22v14.65a12.91,12.91,0,0,0,8,11.95Z" style="fill:none;stroke:#263238;stroke-linecap:round;stroke-linejoin:round"></path><rect x="144.54" y="163.35" width="95.46" height="71.18" rx="3" style="fill:#fff;stroke:#263238;stroke-linecap:round;stroke-linejoin:round"></rect><rect x="148.34" y="168.74" width="87.86" height="60.4" style="fill:#bfbfbf"></rect><g style="clip-path:url(#freepik--clip-path-5--inject-223)"><path d="M209.37,168.74s-21.86,41.27-61,46.39V168.74Z" style="fill:#fff;opacity:0.4"></path><path d="M236.2,190.08v39.06H193.9C200.37,207.88,222.18,195.85,236.2,190.08Z" style="fill:#fff;opacity:0.4"></path></g><rect x="148.34" y="168.74" width="87.86" height="60.4" style="fill:none;stroke:#263238;stroke-linecap:round;stroke-linejoin:round"></rect><path d="M172.06,251.14h40.42a2,2,0,0,1,2,2v3.72a0,0,0,0,1,0,0H170.11a0,0,0,0,1,0,0v-3.72A2,2,0,0,1,172.06,251.14Z" style="fill:#fff;stroke:#263238;stroke-linecap:round;stroke-linejoin:round"></path><rect x="136.07" y="268.97" width="19.95" height="19.95" style="fill:#bfbfbf;stroke:#263238;stroke-linecap:round;stroke-linejoin:round"></rect><rect x="159.19" y="268.97" width="19.95" height="19.95" style="fill:#bfbfbf;stroke:#263238;stroke-linecap:round;stroke-linejoin:round"></rect><rect x="182.3" y="268.97" width="19.95" height="19.95" style="fill:#bfbfbf;stroke:#263238;stroke-linecap:round;stroke-linejoin:round"></rect><rect x="205.41" y="268.97" width="19.95" height="19.95" style="fill:#bfbfbf;stroke:#263238;stroke-linecap:round;stroke-linejoin:round"></rect><rect x="228.53" y="268.97" width="19.95" height="19.95" style="fill:#bfbfbf;stroke:#263238;stroke-linecap:round;stroke-linejoin:round"></rect><polyline points="253.21 281.93 256.19 278.94 253.21 275.96" style="fill:none;stroke:#263238;stroke-linecap:round;stroke-linejoin:round"></polyline><polyline points="131.34 275.96 128.35 278.94 131.34 281.93" style="fill:none;stroke:#263238;stroke-linecap:round;stroke-linejoin:round"></polyline><polygon points="236.55 149.9 241.04 148.95 243.47 152.85 248.06 153.04 249.44 157.43 253.84 158.76 254.09 163.34 258.01 165.73 257.11 170.23 260.32 173.51 258.33 177.65 260.63 181.63 257.67 185.15 258.9 189.57 255.16 192.24 255.25 196.83 250.97 198.49 249.91 202.96 245.35 203.5 243.22 207.56 238.67 206.95 235.59 210.36 231.34 208.63 227.51 211.17 223.81 208.44 219.48 209.95 216.58 206.38 212 206.76 210.08 202.59 205.55 201.82 204.73 197.3 200.53 195.43 200.87 190.85 197.27 187.99 198.72 183.63 195.95 179.97 198.44 176.12 196.67 171.88 200.04 168.76 199.38 164.22 203.42 162.04 203.9 157.47 208.36 156.37 209.97 152.07 214.56 152.11 217.19 148.34 221.63 149.52 225.1 146.52 229.11 148.77 233.23 146.73 236.55 149.9" style="fill:#2980B9;stroke:#263238;stroke-linecap:round;stroke-linejoin:round"></polygon><path d="M212.11,178.62l-.6,2.1c-.46,1.62.08,2.4,1.22,2.72s2-.05,2.46-1.67l1.42-5c.46-1.62-.08-2.43-1.21-2.75s-2,.09-2.48,1.7l-.19.68-3.36-.95,4.38-12.95,9.37,2.67-.92,3.23-6.2-1.76L214.17,172l.07,0a3.46,3.46,0,0,1,3.54-.77c2.61.74,3.42,3,2.47,6.29l-1.43,5c-1,3.63-3.43,5.18-6.93,4.19s-4.71-3.58-3.68-7.2l.53-1.88Z" style="fill:#fff"></path><path d="M224.23,171.37c1-3.62,3.53-5.14,7-4.15s4.81,3.6,3.78,7.22l-3.35,11.77c-1,3.62-3.52,5.15-7,4.16s-4.82-3.61-3.79-7.23Zm.15,13c-.46,1.62.07,2.43,1.2,2.75s2-.09,2.48-1.7l3.48-12.22c.46-1.62-.08-2.44-1.21-2.76s-2,.09-2.48,1.71Z" style="fill:#fff"></path><path d="M238.53,171.56a2.07,2.07,0,1,1,4,1.13L241.28,177a2.07,2.07,0,1,1-4-1.13Zm.06,4.78c-.16.59,0,.9.44,1s.75-.05.91-.63l1.28-4.51c.17-.58,0-.9-.44-1s-.74,0-.91.63Zm7.68-4.75,1.22.35-8.91,11.66-1.22-.35Zm-2.59,6.63a2.07,2.07,0,1,1,4,1.13l-1.23,4.31a2.07,2.07,0,1,1-4-1.13Zm.06,4.78c-.17.58,0,.89.44,1s.74-.06.91-.64l1.28-4.5c.16-.58,0-.9-.44-1s-.75,0-.91.64Z" style="fill:#fff"></path><path d="M233.81,186.63a1.89,1.89,0,1,1,3.63,1l-1.12,4a1.89,1.89,0,1,1-3.63-1Zm.05,4.37c-.15.54,0,.82.41.93s.68,0,.83-.58l1.17-4.1c.15-.54,0-.82-.41-.93s-.68,0-.83.58Z" style="fill:#fff"></path><path d="M239,189.78l1.54.43-.31,1.09-1.54-.44-.89,3.14-1.19-.34,2.16-7.6,3.16.9-.31,1.08-2-.55Z" style="fill:#fff"></path><path d="M242.7,190.84l1.54.44-.31,1.08-1.54-.44-.89,3.14-1.2-.34,2.16-7.6,3.16.9-.31,1.09-2-.56Z" style="fill:#fff"></path><rect x="118.18" y="343.71" width="148.18" height="13.26" style="fill:#2980B9"></rect><rect x="124.99" y="365.68" width="110.55" height="2.85" rx="1.19" style="fill:#2980B9"></rect><rect x="124.99" y="374.23" width="96.15" height="2.85" rx="1.19" style="fill:#2980B9"></rect><path d="M211.31,385.63H126.42A1.43,1.43,0,0,1,125,384.2h0a1.43,1.43,0,0,1,1.43-1.42h84.89a1.42,1.42,0,0,1,1.42,1.42h0A1.42,1.42,0,0,1,211.31,385.63Z" style="fill:#2980B9"></path><rect x="124.99" y="391.33" width="100.95" height="2.85" rx="1.19" style="fill:#2980B9"></rect><rect x="245.04" y="365.68" width="14.51" height="2.85" rx="1.19" style="fill:#2980B9"></rect><rect x="247.44" y="374.23" width="12.11" height="2.85" rx="1.19" style="fill:#2980B9"></rect><rect x="243.84" y="382.78" width="15.71" height="2.85" rx="1.19" style="fill:#2980B9"></rect><rect x="253.45" y="391.33" width="6.11" height="2.85" rx="1.19" style="fill:#2980B9"></rect><rect x="131.05" y="129.24" width="122.45" height="9.16" rx="3.82" style="fill:#2980B9"></rect><polygon points="250.83 328.69 232.95 321.65 239.99 339.53 242.77 333.24 245.82 336.3 247.59 334.52 244.54 331.47 250.83 328.69" style="fill:#fff;stroke:#263238;stroke-linecap:round;stroke-linejoin:round"></polygon></g><g id="freepik--Stuff--inject-223"><path d="M64,407.93a32.75,32.75,0,0,0-4.35,12.14" style="fill:none;stroke:#263238;stroke-linecap:round;stroke-linejoin:round"></path><polygon points="105.77 374.85 97.97 371.46 101.7 362.85 107.12 361.07 109.51 366.24 105.77 374.85" style="fill:#2980B9;stroke:#263238;stroke-linecap:round;stroke-linejoin:round"></polygon><path d="M107.12,361.07c2-3.73,9-10.6,13.81-8.75" style="fill:none;stroke:#263238;stroke-linecap:round;stroke-linejoin:round"></path><polygon points="260.68 415.43 266.72 421.42 260.11 428.08 254.42 427.78 254.07 422.09 260.68 415.43" style="fill:#2980B9;stroke:#263238;stroke-linecap:round;stroke-linejoin:round"></polygon><path d="M254.42,427.78s-6.41,9-13.34,8.18" style="fill:none;stroke:#263238;stroke-linecap:round;stroke-linejoin:round"></path><polygon points="458.59 386.14 454.4 393.54 446.24 388.93 445.03 383.36 450.42 381.52 458.59 386.14" style="fill:#2980B9;stroke:#263238;stroke-linecap:round;stroke-linejoin:round"></polygon><path d="M445,383.36s-6.46.43-10.18-9.63" style="fill:none;stroke:#263238;stroke-linecap:round;stroke-linejoin:round"></path><path d="M431,422.66s-.82-7.54-4.28-11.51" style="fill:none;stroke:#263238;stroke-linecap:round;stroke-linejoin:round"></path><rect x="366.33" y="399.77" width="62.72" height="38.46" style="fill:#bfbfbf"></rect><g style="clip-path:url(#freepik--clip-path-6--inject-223)"><polygon points="376.33 399.77 402.94 408.24 402.94 438.24 429.06 438.24 429.06 399.77 376.33 399.77" style="fill-opacity:0.7000000000000001;opacity:0.2"></polygon><rect x="402.69" y="399.24" width="26.36" height="39" style="fill-opacity:0.7000000000000001;opacity:0.2"></rect></g><rect x="366.33" y="399.77" width="62.72" height="38.46" style="fill:none;stroke:#263238;stroke-linecap:round;stroke-linejoin:round"></rect><polyline points="388.82 417.87 387.32 419.79 402.94 438.24" style="fill:none;stroke:#263238;stroke-linecap:round;stroke-linejoin:round"></polyline><polyline points="402.94 429.57 402.94 399.77 390.49 415.72" style="fill:none;stroke:#263238;stroke-linecap:round;stroke-linejoin:round"></polyline><line x1="402.95" y1="433.34" x2="402.95" y2="435.66" style="fill:none;stroke:#263238;stroke-linecap:round;stroke-linejoin:round"></line><line x1="369.52" y1="433.69" x2="366.33" y2="438.23" style="fill:none;stroke:#263238;stroke-linecap:round;stroke-linejoin:round"></line><polyline points="376.99 416.25 379.27 419.79 371 431.58" style="fill:none;stroke:#263238;stroke-linecap:round;stroke-linejoin:round"></polyline><line x1="371.3" y1="407.45" x2="375.42" y2="413.83" style="fill:none;stroke:#263238;stroke-linecap:round;stroke-linejoin:round"></line><line x1="366.33" y1="399.77" x2="368.97" y2="403.86" style="fill:none;stroke:#263238;stroke-linecap:round;stroke-linejoin:round"></line><rect x="376.33" y="370.79" width="62.72" height="30.3" style="fill:#999"></rect><g style="clip-path:url(#freepik--clip-path-7--inject-223)"><rect x="412.95" y="370.79" width="26.11" height="30.3" style="fill-opacity:0.7000000000000001;opacity:0.2"></rect></g><rect x="376.33" y="370.79" width="62.72" height="30.3" style="fill:none;stroke:#263238;stroke-linecap:round;stroke-linejoin:round"></rect><polyline points="398.82 386.83 397.32 385.32 412.94 370.79" style="fill:none;stroke:#263238;stroke-linecap:round;stroke-linejoin:round"></polyline><polyline points="412.94 377.62 412.94 401.1 400.49 388.53" style="fill:none;stroke:#263238;stroke-linecap:round;stroke-linejoin:round"></polyline><line x1="412.95" y1="374.65" x2="412.95" y2="372.82" style="fill:none;stroke:#263238;stroke-linecap:round;stroke-linejoin:round"></line><line x1="379.52" y1="374.37" x2="376.33" y2="370.79" style="fill:none;stroke:#263238;stroke-linecap:round;stroke-linejoin:round"></line><polyline points="386.99 388.11 389.27 385.32 381 376.03" style="fill:none;stroke:#263238;stroke-linecap:round;stroke-linejoin:round"></polyline><line x1="381.3" y1="395.05" x2="385.42" y2="390.02" style="fill:none;stroke:#263238;stroke-linecap:round;stroke-linejoin:round"></line><line x1="376.33" y1="401.1" x2="378.97" y2="397.88" style="fill:none;stroke:#263238;stroke-linecap:round;stroke-linejoin:round"></line><rect x="120.93" y="352.32" width="25.5" height="86.08" style="fill:#263238"></rect><path d="M134.31,389.12c-2.1,15.86-4.47,35.63-4.47,49.28H117.51V352a3.15,3.15,0,0,1,3.15-3.15h15S136.42,373.26,134.31,389.12Z" style="fill:#bfbfbf"></path><g style="clip-path:url(#freepik--clip-path-8--inject-223)"><path d="M126.63,348.81V438.4h-9.12V352a3.15,3.15,0,0,1,3.15-3.15Z" style="opacity:0.2"></path></g><path d="M134.31,389.12c-2.1,15.86-4.47,35.63-4.47,49.28H117.51V352a3.15,3.15,0,0,1,3.15-3.15h15S136.42,373.26,134.31,389.12Z" style="fill:none;stroke:#263238;stroke-linecap:round;stroke-linejoin:round"></path><line x1="126.63" y1="350.98" x2="126.63" y2="435.47" style="fill:#bfbfbf;stroke:#263238;stroke-linecap:round;stroke-linejoin:round"></line><path d="M148.76,438.41V352a3.15,3.15,0,0,0-3.15-3.15h-5s-.81,24.45,1.29,40.31,4.48,35.63,4.48,49.28Z" style="fill:#bfbfbf;stroke:#263238;stroke-linecap:round;stroke-linejoin:round"></path><path d="M131.12,382.33h0a.89.89,0,0,0,.89-.89V355.73a.89.89,0,0,0-.89-.89h0a.89.89,0,0,0-.89.89v25.71A.89.89,0,0,0,131.12,382.33Z" style="fill:#263238"></path><path d="M224.4,435.41H167.33a2.18,2.18,0,0,1-2-1.67L157.09,396a1.29,1.29,0,0,1,1.28-1.67h57.07a2.2,2.2,0,0,1,2,1.67l8.23,37.72A1.29,1.29,0,0,1,224.4,435.41Z" style="fill:#bfbfbf;stroke:#263238;stroke-linecap:round;stroke-linejoin:round"></path><path d="M225.4,435.41H168.33a2.18,2.18,0,0,1-2-1.67L158.09,396a1.29,1.29,0,0,1,1.28-1.67h57.07a2.2,2.2,0,0,1,2,1.67l8.23,37.72A1.29,1.29,0,0,1,225.4,435.41Z" style="fill:#263238"></path><polygon points="224.36 431.45 167.65 431.45 165.12 419.87 160.26 397.61 216.97 397.61 224.36 431.45" style="fill:#bfbfbf"></polygon><path d="M251.48,435.14v1.67L237.71,438H168.85a1.43,1.43,0,0,1-1.42-1.42v-1.43Z" style="fill:#bfbfbf;stroke:#263238;stroke-linecap:round;stroke-linejoin:round"></path><path d="M199.48,435.14v1.67L185.71,438H168.85a1.43,1.43,0,0,1-1.42-1.42v-1.43Z" style="fill:#999;stroke:#263238;stroke-linecap:round;stroke-linejoin:round"></path><path d="M202.35,397.61c-5.23,8-16,18.66-37.23,22.26l-4.86-22.26Z" style="fill:#fff;opacity:0.4"></path><rect x="62" y="407.93" width="62.72" height="30.3" transform="translate(186.73 846.17) rotate(180)" style="fill:#757575"></rect><g style="clip-path:url(#freepik--clip-path-9--inject-223)"><rect x="62" y="407.93" width="26.11" height="30.3" transform="translate(150.11 846.17) rotate(180)" style="opacity:0.2"></rect></g><rect x="62" y="407.93" width="62.72" height="30.3" transform="translate(186.73 846.17) rotate(180)" style="fill:none;stroke:#263238;stroke-linecap:round;stroke-linejoin:round"></rect><polyline points="102.24 422.19 103.74 423.7 88.11 438.24" style="fill:none;stroke:#263238;stroke-linecap:round;stroke-linejoin:round"></polyline><polyline points="88.11 431.41 88.11 407.93 100.56 420.5" style="fill:none;stroke:#263238;stroke-linecap:round;stroke-linejoin:round"></polyline><line x1="88.11" y1="434.38" x2="88.11" y2="436.21" style="fill:none;stroke:#263238;stroke-linecap:round;stroke-linejoin:round"></line><line x1="121.54" y1="434.66" x2="124.73" y2="438.24" style="fill:none;stroke:#263238;stroke-linecap:round;stroke-linejoin:round"></line><polyline points="114.07 420.92 111.78 423.7 120.06 433" style="fill:none;stroke:#263238;stroke-linecap:round;stroke-linejoin:round"></polyline><line x1="119.76" y1="413.98" x2="115.64" y2="419.01" style="fill:none;stroke:#263238;stroke-linecap:round;stroke-linejoin:round"></line><line x1="124.73" y1="407.93" x2="122.08" y2="411.15" style="fill:none;stroke:#263238;stroke-linecap:round;stroke-linejoin:round"></line><path d="M106.05,407.71a3.73,3.73,0,0,1-.46-.09c-2-.51-3.88-2.94-5.39-4.52-1.13-1.19-11.87-1.19-13,0-1.51,1.58-3.43,4-5.39,4.52a3.73,3.73,0,0,1-.46.09c-3.8.4,1.85-13.75,3.69-14.66s4.22-.81,4.5.35h8.32c.28-1.16,2.65-1.25,4.5-.35S109.85,408.11,106.05,407.71Z" style="fill:#bfbfbf;stroke:#263238;stroke-linecap:round;stroke-linejoin:round"></path><path d="M105.59,407.62c-2-.51-3.88-2.94-5.39-4.52-1.13-1.19-11.87-1.19-13,0-1.51,1.58-3.43,4-5.39,4.52,1.77-1.69,3.92-6.16,4.92-7.31,1.23-1.43,1.82-.64,1.82-.64h10.3s.59-.79,1.83.64C101.67,401.46,103.82,405.93,105.59,407.62Z" style="fill:#263238"></path><polygon points="439.66 433.46 431.71 436.48 428.37 427.72 431 422.66 436.32 424.69 439.66 433.46" style="fill:#2980B9;stroke:#263238;stroke-linecap:round;stroke-linejoin:round"></polygon><polygon points="62.01 433.36 53.65 431.81 55.36 422.59 60.23 419.63 63.72 424.14 62.01 433.36" style="fill:#2980B9;stroke:#263238;stroke-linecap:round;stroke-linejoin:round"></polygon></g></svg>